# xmcd
#
# Track frame offsets: 
#        150
#        4323
#        22120
#        27298
#        29647
#        33038
#        37230
#        48413
#        51232
#        55775
#        70798
#        77485
#        86837
#        93809
#        100878
#        112089
#        118008
#        124437
#
# Disc length: 3120 seconds
#
# Revision: 0
# Processed by: cddbd v1.5.2PL0 Copyright (c) Steve Scherf et al.
# Submitted via: ExactAudioCopyFreeDBPlugin 1.0
#
DISCID=f40c2e12
DTITLE=Honey Radar - Blank Cartoon
DYEAR=2016
DGENRE=Lo-Fi
TTITLE0=Tones
TTITLE1=Caterpillar
TTITLE2=Crybaby Jail
TTITLE3=Song For The Medical Mission Sisters
TTITLE4=Bagpipe Jazz (Is Real)
TTITLE5=Kiss The Peppermint President
TTITLE6=Pan Music
TTITLE7=Postcard Target
TTITLE8=Scorpions Bought Me Breakfast
TTITLE9=Beethoven DUI
TTITLE10=Pinwheel
TTITLE11=Ft Wayne Mermaids
TTITLE12=(The Man With A) Rayon Acetate Throat
TTITLE13=Sugar Helicopter
TTITLE14=Champagne Rodeo
TTITLE15=Coughing Cop
TTITLE16=Sick Day #2
TTITLE17=Jet Rope
EXTD=
EXTT0=
EXTT1=
EXTT2=
EXTT3=
EXTT4=
EXTT5=
EXTT6=
EXTT7=
EXTT8=
EXTT9=
EXTT10=
EXTT11=
EXTT12=
EXTT13=
EXTT14=
EXTT15=
EXTT16=
EXTT17=
PLAYORDER=
